<svg fill="none" height="608" viewBox="0 0 1056 608" width="1056" xmlns="http://www.w3.org/2000/svg" xmlns:xlink="http://www.w3.org/1999/xlink"><linearGradient id="a" gradientUnits="userSpaceOnUse" x1=".000028" x2="676.728" y1="625.949" y2="-229.766"><stop offset="0" stop-color="#0069ff"/><stop offset="1" stop-color="#e1edff"/></linearGradient><linearGradient id="b"><stop offset="0" stop-color="#300091"/><stop offset=".102295" stop-color="#1433d6"/><stop offset=".219241" stop-color="#0069ff"/><stop offset=".51796" stop-color="#c6e3ff"/><stop offset=".872404" stop-color="#f4f9ff"/></linearGradient><linearGradient id="c" gradientUnits="userSpaceOnUse" x1="551.467" x2="1118.09" xlink:href="#b" y1="372.061" y2="-76.4096"/><linearGradient id="d"><stop offset="0" stop-color="#c6e3ff"/><stop offset=".9999" stop-color="#c6e3ff" stop-opacity="0"/><stop offset="1" stop-color="#fff" stop-opacity="0"/></linearGradient><radialGradient id="e" cx="0" cy="0" gradientTransform="matrix(-244.85240171 420.81679751 -231.7026188 -134.81625028 897.374 -9.54155)" gradientUnits="userSpaceOnUse" r="1" xlink:href="#d"/><linearGradient id="f" gradientUnits="userSpaceOnUse" x1="503.835" x2="-62.7866" xlink:href="#b" y1="372.061" y2="-76.4096"/><radialGradient id="g" cx="0" cy="0" gradientTransform="matrix(244.84946385 420.81850689 -231.70355999 134.81463269 157.798 -9.54176)" gradientUnits="userSpaceOnUse" r="1" xlink:href="#d"/><linearGradient id="h" gradientUnits="userSpaceOnUse" x1="473.538" x2="582.98" y1="393.179" y2="186.604"><stop offset="0" stop-color="#000c2a"/><stop offset=".209423" stop-color="#300091"/><stop offset=".602374" stop-color="#1433d6"/><stop offset="1" stop-color="#0069ff"/></linearGradient><radialGradient id="i" cx="0" cy="0" gradientTransform="matrix(-69.88531454 141.27801222 -96.76349027 -47.86553015 559.512 188.048)" gradientUnits="userSpaceOnUse" r="1"><stop offset="0" stop-color="#0069ff"/><stop offset="1" stop-color="#0069ff" stop-opacity="0"/></radialGradient><linearGradient id="j"><stop offset="0" stop-color="#1433d6"/><stop offset="1" stop-color="#1433d6" stop-opacity="0"/></linearGradient><radialGradient id="k" cx="0" cy="0" gradientTransform="matrix(64.85738393 3.01662164 -4.09005156 87.93613394 527.838 130.731)" gradientUnits="userSpaceOnUse" r="1" xlink:href="#j"/><radialGradient id="l" cx="0" cy="0" gradientTransform="matrix(112.89149085 4.39474951 -5.94470033 152.70633327 528.068 76.0594)" gradientUnits="userSpaceOnUse" r="1" xlink:href="#j"/><radialGradient id="m" cx="0" cy="0" gradientTransform="matrix(176.55051899 5.55853307 -7.53160807 239.21946644 528.262 17.5799)" gradientUnits="userSpaceOnUse" r="1" xlink:href="#j"/><linearGradient id="n"><stop offset="0" stop-color="#1433d6"/><stop offset=".882917" stop-color="#1433d6" stop-opacity="0"/></linearGradient><linearGradient id="o" gradientUnits="userSpaceOnUse" x1="600.237" x2="553.589" xlink:href="#n" y1="60.3433" y2="178.988"/><linearGradient id="p" gradientUnits="userSpaceOnUse" x1="458.679" x2="508.598" xlink:href="#n" y1="59.4029" y2="177.168"/><linearGradient id="q"><stop offset="0" stop-color="#fff"/><stop offset="1" stop-color="#fff" stop-opacity="0"/></linearGradient><linearGradient id="r" gradientUnits="userSpaceOnUse" x1="468.206" x2="1300.79" xlink:href="#q" y1="30.6801" y2="480.659"/><linearGradient id="s" gradientUnits="userSpaceOnUse" x1="568.359" x2="426.755" xlink:href="#q" y1="418.451" y2="938.597"/><radialGradient id="t" cx="0" cy="0" gradientTransform="matrix(0 300.154 -536.68 0 532.865 279.551)" gradientUnits="userSpaceOnUse" r="1"><stop offset="0" stop-color="#c6e3ff"/><stop offset="1" stop-color="#c6e3ff" stop-opacity="0"/></radialGradient><linearGradient id="u" gradientUnits="userSpaceOnUse" x1="456.159" x2="679.918" y1="411.001" y2="105.489"><stop offset="0" stop-color="#300091"/><stop offset=".346131" stop-color="#1433d6"/><stop offset=".654267" stop-color="#0069ff"/><stop offset=".990464" stop-color="#c6e3ff"/></linearGradient><clipPath id="v"><path d="m0 0h1056v608h-1056z"/></clipPath><clipPath id="w"><path d="m0-2h1056v611.368h-1056z"/></clipPath><clipPath id="x"><path d="m-3.08789-2h1061.85v611.368h-1061.85z"/></clipPath><clipPath id="y"><path d="m-68.5488-292.701h1192.77v1192.77h-1192.77z"/></clipPath><g clip-path="url(#v)"><path d="m0 0h1056v608h-1056z" fill="#fff"/><g clip-path="url(#w)"><path d="m0 0h1056v611.368h-1056z" fill="#fff" transform="translate(0 -2)"/><g clip-path="url(#x)"><path d="m0 0h1061.85v611.368h-1061.85z" fill="url(#a)" transform="translate(-3.08789 -2)"/><g clip-path="url(#y)" opacity=".3"><path d="m1318.83-468.581-736.694 645.568-.121 224.988 736.815 702.065z" fill="url(#c)"/><path clip-rule="evenodd" d="m582.021 389.901-.006 12.073 251.429 239.571h20.189 28.155z" fill="#000c2a" fill-rule="evenodd"/><path clip-rule="evenodd" d="m1318.83-166.162v-23.607l-433.422 243.9121v-124.6201h-4.767l392.229-331.724-1.94-23.634-515.547 451.199v-.1948l-10.055 8.8116v.1835l-75.708 66.2577v-.098l-6.034 5.287v.092l-49.371 43.209v-.036l-4.023 3.525v.031l-27.812 24.341-.243.213-.001.001-.002 4.995 28.058-23.731v50.773l-27.049 15.223v5.028l27.049-14.54v48.783l-27.101 6.983v4.114l27.101-6.253v49.211l-27.049-3.833v4.023l27.049 4.573v48.297l-27.049-14.661v4.022l27.049 15.422v36.914l-27.049-22.169v6.034l27.049 22.846v9.783l4.023 3.832v-10.218l49.371 41.701v15.56l6.034 5.749v-16.213l75.708 63.944v24.406l10.055 9.581v-25.494l80.15 67.697h15.084l-95.234-78.049v-73.129l113.936 64.956v152.582l16.089 15.33v-158.739l432.442 246.54.98-11.817v-12.339l-433.422-234.908v-150.925l433.102 73.231.32-12.003v-12.125l-433.422-61.408v-151.695l433.422-99.989v-23.9428l-433.422 111.6698v-125.8047zm-655.244 279.256-49.371 41.756v51.911l49.371-27.785zm0 72.942-49.371 26.537v49.909l49.371-12.72zm0 70.008-49.371 11.391v50.708l49.371 6.995zm0 75.32-49.371-8.348v49.797l49.371 26.759zm0 74.492-49.371-28.147v37.917l49.371 40.463zm6.034 55.177v-51.737l75.708 43.162v70.622zm0-58.191v-70.458l75.708 12.801v98.69zm0-76.849v-71.34l75.708-17.466v99.532zm0-77.786v-65.414l75.708-40.694v86.602zm0-72.626v-67.59l75.708-64.0285v89.0125zm199.699-236.483-113.936 96.3602v91.8588l113.936-64.1198zm0 136.3541-113.936 61.2419v89.416l113.936-29.355zm0 133.1299-113.936 26.285v103.277l113.936 16.143zm0 157.569-113.936-19.265v102.438l113.936 61.753z" fill="#0069ff" fill-rule="evenodd"/><path d="m1090.44-19.2631-248.374.0001-227.545 435.278 97.52 84.247z" fill="url(#e)"/><path d="m-263.523-468.581 736.689 645.568.122 224.988-736.811 702.065z" fill="url(#f)"/><path clip-rule="evenodd" d="m473.282 389.903.007 12.071-251.43 239.572h-20.187-28.155z" fill="#000c2a" fill-rule="evenodd"/><path clip-rule="evenodd" d="m-263.523-166.163v-23.607l433.419 243.9131v-124.6195h4.767l-392.23-331.7236 1.939-23.635 515.548 451.1988v-.1945l10.055 8.8116v.1832l75.709 66.2589v-.098l6.034 5.287v.092l49.371 43.209v-.036l4.022 3.525v.031l27.628 24.179.427.375.003 4.994-28.058-23.729v50.772l27.05 15.223v5.028l-27.05-14.54v48.784l27.102 6.982v4.114l-27.102-6.252v49.21l27.05-3.833v4.023l-27.05 4.573v48.297l27.05-14.66v4.022l-27.05 15.421v36.914l27.05-22.169v6.034l-27.05 22.846v9.782l-4.022 3.832v-10.216l-49.371 41.7v15.559l-6.034 5.749v-16.212l-75.709 63.945v24.405l-10.055 9.581v-25.493l-80.15 67.696h-15.083l95.233-78.048v-73.129l-113.936 64.956v152.58l-16.088 15.33v-158.738l-432.441 246.54-.978-11.832v-12.323l433.419-234.908v-150.926l-433.103 73.231-.316-12.047v-12.08l433.419-61.409v-151.695l-433.419-99.989v-23.9429l433.419 111.6699v-125.8047zm655.241 279.258 49.371 41.755v51.911l-49.371-27.785zm0 72.941 49.371 26.537v49.909l-49.371-12.72zm0 70.009 49.371 11.39v50.708l-49.371 6.995zm0 75.319 49.371-8.348v49.797l-49.371 26.759zm0 74.493 49.371-28.148v37.917l-49.371 40.463zm-6.034 55.176v-51.737l-75.709 43.163v70.622zm0-58.191v-70.458l-75.709 12.802v98.689zm0-76.849v-71.34l-75.709-17.466v99.532zm0-77.786v-65.414l-75.709-40.695v86.603zm0-72.626v-67.589l-75.709-64.0297v89.0127zm-199.699-236.4822 113.935 96.3593v91.8579l-113.935-64.1188zm0 136.3533 113.935 61.2409v89.417l-113.935-29.355zm0 133.1309 113.935 26.284v103.277l-113.936 16.143zm-.001 157.568 113.936-19.265v102.439l-113.936 61.752z" fill="#0069ff" fill-rule="evenodd"/><path d="m-35.2658-19.2633 248.3718.0001 227.544 435.2782-97.519 84.247z" fill="url(#g)"/><path d="m473.66 177.311h108.355v224.659h-108.355z" fill="url(#h)"/><path clip-rule="evenodd" d="m475.562 177.311v224.918h-2.024l-1.508 1.005-.271-225.923zm104.551 224.918v-225.241h2.023l1.006-.654v226.9l-1.006-1.005z" fill="#0069ff" fill-rule="evenodd"/><path d="m471.526 176.987h111.615v4.022h-111.615z" fill="#0069ff"/><path d="m472.532 390.162h110.609v6.03324h-110.609z" fill="#0069ff"/><path d="m475.55 396.195h104.576v6.033h-104.576z" fill="#000c2a"/><g clip-rule="evenodd" fill-rule="evenodd"><path d="m582.136 229.275h-108.598v-5.027h108.598z" fill="#0069ff"/><path d="m582.136 274.525h-108.598v-4.023h108.598z" fill="#0069ff"/><path d="m582.035 317.662h-108.598v-4.022h108.598z" fill="#0069ff"/><path d="m582.035 359.996h-108.598v-4.023h108.598z" fill="#0069ff"/></g><path d="m536.887 188.048h38.211l-79.767 213.924h-21.671z" fill="url(#i)"/><path d="m678.125 232.794c0-54.702-67.511-99.046-150.79-99.046s-150.79 44.344-150.79 99.046" stroke="url(#k)" stroke-width="6.03324"/><path d="m747.529 224.749c0-79.692-98.585-144.2948-220.195-144.2948s-220.194 64.6028-220.194 144.2948" stroke="url(#l)" stroke-width="7.03878"/><path d="m805.366 205.644c0-100.795-124.479-182.5056-278.031-182.5056-153.553 0-278.032 81.7106-278.032 182.5056" stroke="url(#m)" stroke-width="8.04432"/><path clip-rule="evenodd" d="m638.51-43.7396-93.012 215.6976.876.493 101.56-216.1907z" fill="url(#o)" fill-rule="evenodd"/><path clip-rule="evenodd" d="m425.775-43.7399 85.973 215.6979-.876.493-101.559-216.1909z" fill="url(#p)" fill-rule="evenodd"/></g><path d="m1179.63 12.5809c236.98-47.3598-21.12-264.9589-654.611 101.5601-633.49 366.518-953.252 161.891-921.075-292.111h1962.816v815.494c-27.15-322.778 45.75-682.3594-227.76-322.778-341.88 449.476-803.423-173.456-159.37-302.1651z" fill="url(#r)" opacity=".2"/><path d="m913.994 531.722c301.806-144.291 90.446 92.012 189.956 106.999l-1254.101 149.334-34.064-286.066c48.856 27.599 384.79 114.684 717.304-141.616 332.513-256.301 147.586 282.898 380.905 171.349z" fill="url(#s)" opacity=".2"/><ellipse cx="532.362" cy="279.048" fill="url(#t)" rx="587.738" ry="330.32"/><path d="m376.701 174.081c0-22.214 18.008-40.221 40.222-40.221h238.949c22.214 0 40.222 18.007 40.222 40.221v238.95c0 22.213-18.008 40.221-40.222 40.221h-238.949c-22.214 0-40.222-18.008-40.222-40.221z" fill="#fff"/><path d="m367.438 183.344c0-22.213 18.008-40.221 40.222-40.221h238.949c22.214 0 40.222 18.008 40.222 40.221v238.95c0 22.213-18.008 40.221-40.222 40.221h-238.949c-22.214 0-40.222-18.007-40.222-40.221z" fill="url(#u)"/><g fill="#fff"><path clip-rule="evenodd" d="m503.434 347.723c-.877-.935-1.596-1.669-2.278-2.436-2.586-2.907-4.683-6.135-6.232-9.707-.249-.572-.554-.78-1.183-.769-2.236.04-4.473.022-6.709.013-1.974-.006-3.019-.994-3.077-2.959-.04-1.316-.041-2.635.001-3.951.063-1.933 1.096-2.901 3.027-2.903 1.613-.003 3.227-.001 4.943-.001-.403-4.404-.332-8.69.612-13.061-.494 0-.874 0-1.254 0-19.82 0-39.64.001-59.459-.001-2.699 0-4.699-1.58-5.188-4.079-.578-2.951 1.672-5.771 4.698-5.887.307-.011.615-.004.922-.004 20.995 0 41.988-.004 62.982.019.775 0 1.183-.247 1.565-.91 2.58-4.474 5.966-8.236 10.124-11.296.218-.16.426-.335.616-.709-.341 0-.681 0-1.021 0-15.99 0-31.98.011-47.97-.024-.977-.002-2.033-.175-2.914-.575-2.087-.949-3.122-3.343-2.596-5.562.519-2.194 2.545-3.804 4.833-3.806 7.045-.007 14.089-.003 21.134-.003 12.887 0 25.773-.006 38.66.018.756.001 1.122-.184 1.375-.938 1.309-3.898 3.215-7.498 5.601-10.843.221-.311.437-.626.758-1.087-.527-.024-.898-.056-1.27-.056-18.702-.003-37.403.008-56.104-.031-1.053-.002-2.202-.216-3.134-.679-2.006-.998-2.93-3.388-2.36-5.499.62-2.3 2.516-3.752 4.938-3.752 22.587-.003 45.175-.004 67.762.01.728.001 1.338-.168 1.962-.545 5.79-3.504 12.057-5.454 18.818-5.897 19.668-1.291 37.275 11.664 42.81 30.456.315 1.071.608 2.155.816 3.25.11.578.345.832.898 1.027 12.26 4.302 20.402 12.7 24.009 25.167 5.806 20.064-5.593 40.65-24.987 46.385-3.043.899-6.153 1.412-9.32 1.429-14.305.079-28.609.154-42.914.167-28.29.025-56.58.011-84.87-.011-.846-.001-1.75-.118-2.529-.429-2.198-.878-3.346-3.172-2.91-5.538.411-2.221 2.423-3.91 4.762-3.992.251-.008.503-.002.755-.002h39.583c.356.001.713.001 1.315.001z" fill-rule="evenodd"/><path clip-rule="evenodd" d="m450.533 334.827c-5.697 0-11.395.001-17.094 0-2.304-.001-3.278-.957-3.288-3.238-.006-1.316-.022-2.633.018-3.948.047-1.547 1.138-2.622 2.686-2.623 11.814-.01 23.629-.011 35.444.001 1.55.001 2.664 1.122 2.712 2.721.046 1.511.047 3.025.002 4.536-.045 1.506-1.281 2.546-2.967 2.549-3.91.008-7.821.003-11.731.003-1.927-.001-3.854-.001-5.782-.001z" fill-rule="evenodd"/><path d="m715.657 118.035 15.217-16.112 15.217-16.1113-17.703 13.32-17.704 13.3203c-8.072 6.073-17.74 8.806-27.235 8.276-9.495-.529-18.803-4.315-26.151-11.245l-16.109-15.2167-16.108-15.217 13.316 17.7039 13.317 17.7038c6.072 8.072 8.804 17.741 8.273 27.237-.53 9.496-4.316 18.805-11.246 26.155l-15.217 16.112-15.217 16.111 17.703-13.32 17.704-13.32c8.072-6.073 17.74-8.806 27.235-8.276 9.495.529 18.802 4.315 26.151 11.245l16.109 15.217 16.108 15.217-13.317-17.704-13.316-17.704c-6.072-8.072-8.804-17.741-8.274-27.237.531-9.496 4.317-18.805 11.247-26.155z"/></g></g></g></g></svg>