<svg fill="none" height="608" viewBox="0 0 1056 608" width="1056" xmlns="http://www.w3.org/2000/svg" xmlns:xlink="http://www.w3.org/1999/xlink"><filter id="a" color-interpolation-filters="sRGB" filterUnits="userSpaceOnUse" height="119.12" width="119.137" x="665.787" y="90.7983"><feFlood flood-opacity="0" result="BackgroundImageFix"/><feColorMatrix in="SourceAlpha" result="hardAlpha" type="matrix" values="0 0 0 0 0 0 0 0 0 0 0 0 0 0 0 0 0 0 127 0"/><feOffset/><feGaussianBlur stdDeviation="3.65854"/><feColorMatrix type="matrix" values="0 0 0 0 1 0 0 0 0 1 0 0 0 0 1 0 0 0 0.75 0"/><feBlend in2="BackgroundImageFix" mode="normal" result="effect1_dropShadow_2076_601"/><feBlend in="SourceGraphic" in2="effect1_dropShadow_2076_601" mode="normal" result="shape"/></filter><filter id="b" color-interpolation-filters="sRGB" filterUnits="userSpaceOnUse" height="40.6482" width="40.6371" x="532.456" y="208.451"><feFlood flood-opacity="0" result="BackgroundImageFix"/><feColorMatrix in="SourceAlpha" result="hardAlpha" type="matrix" values="0 0 0 0 0 0 0 0 0 0 0 0 0 0 0 0 0 0 127 0"/><feOffset/><feGaussianBlur stdDeviation="3.65854"/><feColorMatrix type="matrix" values="0 0 0 0 1 0 0 0 0 1 0 0 0 0 1 0 0 0 0.75 0"/><feBlend in2="BackgroundImageFix" mode="normal" result="effect1_dropShadow_2076_601"/><feBlend in="SourceGraphic" in2="effect1_dropShadow_2076_601" mode="normal" result="shape"/></filter><linearGradient id="c" gradientUnits="userSpaceOnUse" x1=".000028" x2="673" y1="622.5" y2="-228.5"><stop offset="0" stop-color="#0069ff"/><stop offset="1" stop-color="#e1edff"/></linearGradient><radialGradient id="d" cx="0" cy="0" gradientTransform="matrix(0 298.5 -533.723 0 553 280)" gradientUnits="userSpaceOnUse" r="1"><stop offset="0" stop-color="#c6e3ff"/><stop offset="1" stop-color="#c6e3ff" stop-opacity="0"/></radialGradient><linearGradient id="e"><stop offset="0" stop-color="#fff"/><stop offset="1" stop-color="#fff" stop-opacity="0"/></linearGradient><linearGradient id="f" gradientUnits="userSpaceOnUse" x1="1170.82" x2="290.033" xlink:href="#e" y1="-168.184" y2="177.151"/><linearGradient id="g" gradientUnits="userSpaceOnUse" x1="24.8099" x2="280.11" xlink:href="#e" y1="555.046" y2="11.7353"/><linearGradient id="h"><stop offset="0" stop-color="#f4f9ff"/><stop offset=".348702" stop-color="#c6e3ff"/><stop offset=".698187" stop-color="#5fa3ff"/><stop offset=".981505" stop-color="#0069ff"/></linearGradient><linearGradient id="i" gradientUnits="userSpaceOnUse" x1="694" x2="304" xlink:href="#h" y1="119.5" y2="690"/><linearGradient id="j" gradientUnits="userSpaceOnUse" x1="409.593" x2="1008.93" xlink:href="#h" y1="224.787" y2="417.702"/><linearGradient id="k" gradientUnits="userSpaceOnUse" x1="420.858" x2="334.255" y1="276.553" y2="361.795"><stop offset="0" stop-color="#00bfff"/><stop offset="1" stop-color="#0069ff"/></linearGradient><linearGradient id="l"><stop offset="0" stop-color="#f4f9ff"/><stop offset=".418962" stop-color="#c6e3ff"/><stop offset=".80444" stop-color="#5fa3ff"/><stop offset=".977663" stop-color="#0069ff"/></linearGradient><linearGradient id="m" gradientUnits="userSpaceOnUse" x1="865.5" x2="865.799" xlink:href="#l" y1="156" y2="166.948"/><linearGradient id="n" gradientUnits="userSpaceOnUse" x1="321.97" x2="1015.19" xlink:href="#l" y1="336.88" y2="490.265"/><linearGradient id="o" gradientUnits="userSpaceOnUse" x1="533.139" x2="750.554" y1="302.469" y2="420.27"><stop offset="0" stop-color="#006bff"/><stop offset=".46" stop-color="#1433d6"/><stop offset="1" stop-color="#300091"/></linearGradient><linearGradient id="p" gradientUnits="userSpaceOnUse" x1="98.1778" x2="345.625" y1="341.264" y2="835.501"><stop offset=".80541" stop-color="#300091"/><stop offset=".895092" stop-color="#1433d6"/><stop offset="1" stop-color="#5fa3ff"/></linearGradient><linearGradient id="q" gradientUnits="userSpaceOnUse" x1="183.441" x2="285.5" y1="562.181" y2="523.5"><stop offset=".0915913" stop-color="#300091"/><stop offset=".345494" stop-color="#1433d6"/><stop offset=".587522" stop-color="#0069ff"/><stop offset=".990464" stop-color="#c6e3ff"/></linearGradient><linearGradient id="r" gradientUnits="userSpaceOnUse" x1="325.177" x2="382.056" y1="168.514" y2="56.2753"><stop offset="0" stop-color="#300091"/><stop offset=".346131" stop-color="#1433d6"/><stop offset=".654267" stop-color="#0069ff"/><stop offset=".990464" stop-color="#c6e3ff"/></linearGradient><linearGradient id="s" gradientUnits="userSpaceOnUse" x1="504.829" x2="318.067" xlink:href="#l" y1="223.136" y2="170.714"/><linearGradient id="t" gradientUnits="userSpaceOnUse" x1="594.392" x2="498.759" y1="24.5853" y2="212.134"><stop offset="0" stop-color="#fff" stop-opacity="0"/><stop offset=".480231" stop-color="#fff" stop-opacity=".2"/><stop offset="1" stop-color="#fff" stop-opacity="0"/></linearGradient><clipPath id="u"><path d="m0 0h1056v608h-1056z"/></clipPath><mask id="v" height="770" maskUnits="userSpaceOnUse" width="965" x="202" y="56"><path d="m202.172 275.001 408.662-109.5 408.666-109.5008 147.5 550.4958-817.323 219.001z" fill="url(#j)"/></mask><g clip-path="url(#u)"><path d="m0 0h1056v608h-1056z" fill="url(#c)"/><path d="m1137 279.5c0 181.425-261.69 328.5-584.5 328.5s-584.5-147.075-584.5-328.5c0-181.4258 261.69-328.5002 584.5-328.5002s584.5 147.0744 584.5 328.5002z" fill="url(#d)"/><path d="m841.43-.932656c8.612-191.928344 363.33-19.348144 15.789 526.189656-347.539 545.533 4.057 768.143 610.621 681.483l-459.25-1536.53-1103.0435 110.426c442.9455-22.454 912.2625-128.213 489.8815 134.5835-527.976 328.4965 422.597 605.4495 446.002 83.847844z" fill="url(#f)" opacity=".5"/><path d="m123.287 224.464c96.645-355.234-211.7944-64.913-291.287-162.8166l399.852 1337.8226 527.284-52.79c-75.06-41.85-408.385-361.173-128.662-782.454 279.723-421.282-581.9015-65.135-507.187-339.762z" fill="url(#g)" opacity=".3"/><path d="m966 101.504-839.261 193.81-2.868-7.473-.012.005c-.142-.395-.289-.79-.44-1.184-11.242-29.288 10.081-10.662-.919-51.162-3.661 1.405-99.5618 60.637-102.7428 62.669-22.26703 14.221-32.2375 42.58-22.40017 68.207.15119.394.3063.785.46525 1.174l-.01312.005 134.87084 451.606c.158.443.322.886.492 1.329.071.185.143.37.216.554.132.366.268.732.409 1.097.208.543.424 1.081.647 1.614l.646 1.682.077-.03c12.358 27.094 73.839 31.225 102.017 20.408 1.62-.622 3.196-1.31 4.724-2.06l847.092-216.26-61.24-228.54 26.22-7.276-1.34-1.326-25.3 7.023-19.44-72.565 1.78-.494-2.19-1.007z" fill="#000c2a" opacity=".5"/><path d="m201.735 276.132c115.829-73.5 239.329-102 406.329-108.875 166.999-6.874 250.406-67.096 410.996-110.1258l147.5 550.4948-817.32 219.001s-263.3332-476.994-147.505-550.495z" fill="url(#i)"/><path clip-rule="evenodd" d="m202.232 275.818c107.001-53.968 235.834-79.393 379.768-85.318 132.153-5.44 209.494-27.531 315.595-57.836 27.978-7.991 57.955-16.554 91.464-25.532l155.411 506.414 22.09-5.92-147.5-550.4944c-56.445 15.1242-103.354 32.3722-147.709 48.6814-81.84 30.091-154.985 56.986-263.287 61.445-166.761 6.864-290.147 35.293-405.832 108.56z" fill="#fff" fill-rule="evenodd"/><g mask="url(#v)"><path d="m865.651 603.916-13.745 4.558 7.598 22.907 13.744-4.558z" fill="#1433d6"/><path d="m858.053 581.008-13.053 3.492 6.906 23.974 13.744-4.559z" fill="#5fa3ff"/><path d="m793.952 598-13.953 3.873 6.454 23.255 13.954-3.872z" fill="#5fa3ff"/><g fill="#0069ff"><path d="m826.952 589-13.953 3.873 6.454 23.255 13.954-3.872z"/><path d="m760.975 606.896-13.954 3.873 6.455 23.255 13.953-3.873z"/><path d="m912.655 582.682-5.655-15.007 118.02-32.757 10.64 13.264z"/></g><path d="m1030.16 549.682-5.14-14.764 118.6-32.918 4.2 15.116z" fill="#5fa3ff"/><path d="m923.155 611.683-5.5-13.5 68.405-18.638 6.095 14.137z" fill="#5fa3ff"/><path d="m992.155 593.682-6.095-14.138 166.27-46.149 4.2 15.116z" fill="#0069ff"/><path d="m314.672 361.521 32.222 86.324s60.548-31.844 153.106-51.844l-92.558-56.383 13.736 49.492-55.895-44.243 15.86 57.142z" fill="#1433d6"/><path d="m891.502 292s-43.502 20.5-102 28.5l3.5 10.5c53.498-7 102.5-28 102.5-28z" fill="#000c2a"/><path clip-rule="evenodd" d="m885.394 275.942-6.166-17.037c-5.919 2.186-12.625 4.555-20.034 7.007l6.093 16.836c7.375-2.384 14.119-4.686 20.107-6.806zm-80.49 23.585-6.422-16.697c-6.784 1.544-13.793 3.024-21.002 4.411l6.445 16.758c7.131-1.39 14.139-2.893 20.979-4.472zm14.258-21.761 5.912 16.645 20.51-5.693-5.924-16.679c-6.478 1.923-13.323 3.846-20.498 5.727z" fill="#5fa3ff" fill-rule="evenodd"/><path d="m275.267 553.357-91.858 25.495 2.905 10.465 91.858-25.495z" fill="#000c2a"/><path d="m247.79 526.543h19.3075v19.3075h-19.3075z" fill="#8f0000" transform="matrix(.96357493 -.26743851 .26743851 .96357493 -131.792107 85.447955)"/><path d="m211.162 536.71h19.3075v19.3075h-19.3075z" fill="#ff0714" transform="matrix(.96357493 -.26743851 .26743851 .96357493 -135.845332 76.022551)"/><path d="m456 281.001-5.5-18.001c-60.5 7.501-154.5 49.501-154.5 49.501l7.5 17.5s100.5-45 152.5-49z" fill="url(#k)"/><path d="m852.5 187.501-6-15s-17.249 10.266-47.5 18c-30.25 7.734-56 11.888-56 11.888l5.5 14.536c20-2.924 35.5-6.493 54.5-10.924 19-4.432 49.5-18.5 49.5-18.5z" fill="url(#m)"/><path clip-rule="evenodd" d="m1008.44 229.864-17.44-50.864-20 10 18.995 49.864c6.696-3.154 13.045-6.27 18.445-9zm-91.904-83.277 23.964 58.413 20.5-9.5-22.388-58.154c-7.766 3.279-15.492 6.508-22.076 9.241z" fill="#300091" fill-rule="evenodd"/><path clip-rule="evenodd" d="m980.366 243.309-20.366-50.308-21 8.499 20.222 50.754c6.688-2.587 13.957-5.699 21.144-8.945zm-29.412-111.206c-.379.348-.582.552-.582.552l20.629 56.846 20.5-9-20.552-57.129c-5.323 2.404-12.374 5.47-19.995 8.731z" fill="#5fa3ff" fill-rule="evenodd"/><path d="m1045 325.821-82.767 2.672 17.662 23.686c-17.662 45.352-193.395 84.321-344.596 220.862l-55.889-59.937s-144.41 75.896-201.601 141.38c-57.192 65.483-67.629-73.818-67.629-73.818l-176.445 104.558 19.978 29.316 149.033-89.278s1.464 134.738 68.359 74.738 202.014-141.679 202.014-141.679l56.432 60.425c216.449-181.246 334.182-188.746 370.449-237.746l18.81 23.507z" fill="url(#n)"/><path clip-rule="evenodd" d="m712.194 316.732c10.733 39.108-12.197 79.552-51.3 90.405-39.172 10.873-79.742-12.069-90.614-51.242-10.873-39.173 12.069-79.742 51.242-90.615.373-.103.745-.203 1.118-.301l-9.037-32.56c-.372.1-.745.201-1.117.304-57.154 15.863-90.627 75.055-74.764 132.208 15.863 57.154 75.055 90.627 132.209 74.764 57.084-15.844 90.544-74.911 74.821-132z" fill="url(#o)" fill-rule="evenodd"/><path clip-rule="evenodd" d="m744.752 307.695c-.019-.07-.038-.14-.058-.21-15.755-56.765-74.253-90.171-131.044-75.08l9.037 32.561c38.809-10.103 78.685 12.771 89.45 51.555.019.07.039.14.058.21z" fill="#000c2a" fill-rule="evenodd"/><path d="m665.412 423.414c48.164-13.367 76.371-63.248 63.003-111.411-13.367-48.163-63.248-76.37-111.411-63.003-48.163 13.368-76.371 63.248-63.003 111.412 13.368 48.163 63.248 76.37 111.411 63.002z" stroke="#f4f9ff" stroke-miterlimit="10" stroke-width="4.77256"/><path d="m648.987 359.723c13.165-3.654 20.875-17.288 17.221-30.452-3.654-13.165-17.288-20.875-30.452-17.221-13.165 3.654-20.875 17.288-17.221 30.452 3.654 13.165 17.288 20.875 30.452 17.221z" fill="#5fa3ff"/><path d="m644.372 345.349c5.137-1.426 8.146-6.747 6.72-11.884-1.426-5.138-6.746-8.146-11.884-6.72-5.137 1.425-8.146 6.746-6.72 11.883 1.426 5.138 6.747 8.147 11.884 6.721z" fill="#f4f9ff"/><path clip-rule="evenodd" d="m368.604 504.434c-.533.161-.961.743-.958 1.299s.438.876.97.715c2.949-.893 4.412.333 6.145 1.835l.048.042c1.705 1.48 3.689 3.201 7.542 2.034s5.808-4.081 7.489-6.586l.048-.071c1.707-2.545 3.15-4.651 6.099-5.544s4.413.333 6.145 1.835l.048.042c1.705 1.48 3.689 3.201 7.542 2.034s5.808-4.081 7.489-6.586l.048-.071c1.707-2.545 3.151-4.651 6.099-5.544 2.949-.893 4.413.333 6.145 1.835l.049.042c1.705 1.48 3.688 3.201 7.541 2.034s5.809-4.081 7.489-6.586l.048-.071c1.708-2.545 3.151-4.651 6.1-5.544s4.412.333 6.144 1.835l.049.042c1.705 1.48 3.689 3.201 7.542 2.034.532-.162.961-.743.957-1.299-.003-.556-.437-.877-.97-.715-2.949.893-4.412-.333-6.144-1.836l-.049-.042c-1.705-1.479-3.688-3.2-7.542-2.033-3.853 1.167-5.808 4.081-7.489 6.586l-.047.071c-1.708 2.544-3.151 4.651-6.1 5.544s-4.412-.333-6.145-1.836l-.048-.042c-1.705-1.479-3.689-3.2-7.542-2.033s-5.808 4.081-7.489 6.586l-.048.071c-1.707 2.544-3.15 4.651-6.099 5.544s-4.413-.333-6.145-1.836l-.048-.042c-1.705-1.479-3.689-3.2-7.542-2.033s-5.808 4.081-7.489 6.586l-.048.071c-1.707 2.544-3.151 4.651-6.099 5.544-2.949.893-4.413-.333-6.145-1.835l-.049-.042c-1.705-1.48-3.688-3.201-7.541-2.034zm7.961 27.688c-.532.161-.961.743-.958 1.299.004.556.438.876.97.715 2.949-.893 4.413.333 6.145 1.835l.049.042c1.705 1.48 3.688 3.201 7.541 2.034s5.809-4.081 7.489-6.586l.048-.071c1.708-2.545 3.151-4.651 6.1-5.544s4.412.333 6.144 1.835l.049.042c1.705 1.48 3.688 3.201 7.542 2.034 3.853-1.167 5.808-4.081 7.489-6.586l.047-.071c1.708-2.545 3.151-4.651 6.1-5.544s4.412.333 6.145 1.835l.048.042c1.705 1.48 3.689 3.201 7.542 2.034s5.808-4.081 7.489-6.586l.048-.071c1.707-2.545 3.15-4.651 6.099-5.544s4.413.333 6.145 1.835l.048.042c1.705 1.48 3.689 3.201 7.542 2.034.532-.162.961-.743.958-1.299-.004-.556-.438-.877-.97-.715-2.949.893-4.413-.333-6.145-1.836l-.048-.042c-1.705-1.479-3.689-3.2-7.542-2.033s-5.808 4.081-7.489 6.586l-.048.071c-1.707 2.544-3.151 4.651-6.099 5.544-2.949.893-4.413-.333-6.145-1.836l-.049-.042c-1.705-1.479-3.688-3.2-7.541-2.033s-5.809 4.081-7.489 6.586l-.048.071c-1.708 2.544-3.151 4.651-6.1 5.544s-4.412-.333-6.144-1.836l-.049-.042c-1.705-1.479-3.689-3.2-7.542-2.033s-5.808 4.081-7.489 6.586l-.047.071c-1.708 2.544-3.151 4.651-6.1 5.544s-4.413-.333-6.145-1.835l-.048-.043c-1.705-1.479-3.689-3.2-7.542-2.033zm50.192-29.165c-.149-.517-.712-.795-1.191-.55-2.727 1.396-4.33 3.735-5.74 5.793l-.048.07c-1.719 2.507-3.172 4.583-6.122 5.476s-4.405-.303-6.128-1.77l-.048-.041c-1.695-1.444-3.667-3.123-7.522-1.957s-5.823 4.038-7.515 6.507l-.048.07c-1.719 2.508-3.171 4.584-6.121 5.476-2.95.893-4.406-.303-6.128-1.77l-.048-.041c-1.695-1.444-3.668-3.123-7.522-1.957-.533.161-.964.734-.964 1.281.001.546.433.858.965.697 2.95-.893 4.406.303 6.128 1.77l.048.041c1.696 1.444 3.668 3.123 7.522 1.957 3.855-1.166 5.823-4.038 7.515-6.507l.048-.07c1.719-2.508 3.172-4.584 6.122-5.476 2.95-.893 4.405.303 6.128 1.77l.048.041c1.695 1.443 3.667 3.123 7.522 1.957 3.855-1.167 5.823-4.039 7.515-6.507l.048-.07c1.48-2.16 2.764-4 4.976-5.039.437-.205.693-.688.56-1.151zm6.77 27.136c.479-.245 1.042.034 1.191.55.133.464-.123.946-.559 1.151-2.213 1.039-3.496 2.879-4.977 5.039l-.048.071c-1.692 2.468-3.66 5.34-7.515 6.506-3.855 1.167-5.827-.513-7.522-1.957l-.048-.041c-1.722-1.466-3.178-2.662-6.128-1.77-2.95.893-4.403 2.969-6.122 5.477l-.048.07c-1.692 2.468-3.66 5.34-7.515 6.507-3.854 1.166-5.826-.514-7.522-1.958l-.048-.041c-1.722-1.466-3.177-2.662-6.128-1.77-.532.161-.964-.151-.965-.697 0-.546.431-1.119.964-1.28 3.854-1.167 5.827.513 7.522 1.957l.048.041c1.722 1.466 3.178 2.663 6.128 1.77s4.403-2.969 6.121-5.476l.048-.071c1.692-2.468 3.661-5.34 7.515-6.506 3.855-1.167 5.827.513 7.522 1.957l.049.041c1.722 1.466 3.177 2.662 6.127 1.77 2.95-.893 4.403-2.969 6.122-5.477l.048-.07c1.41-2.058 3.013-4.396 5.74-5.793z" fill="#0069ff" fill-rule="evenodd"/></g><g clip-rule="evenodd" fill-rule="evenodd"><path d="m199.232 267.699-101.2682 39.428 182.0422 480.023c.352 1.117.74 2.231 1.166 3.339.369.962.761 1.907 1.176 2.837l.394 1.038.069-.026c12.541 26.699 43.773 39.564 71.748 28.825 29.288-11.242 43.917-44.099 32.674-73.387-2.191-5.707-5.202-10.858-8.848-15.368z" fill="url(#p)"/><path d="m201.418 265.662c.151.394.298.789.44 1.184l.012-.005 187.281 487.882-.125.048c-.353-1.118-.742-2.233-1.168-3.343-11.242-29.288-44.099-43.917-73.387-32.674-28.751 11.036-43.375 42.902-33.266 71.773l-185.396-482.973.0131-.005c-.159-.388-.3141-.78-.4652-1.173-11.2427-29.288 3.386-62.145 32.6741-73.388 29.288-11.242 62.145 3.386 73.387 32.674zm81.019 528.074.652 1.701.078-.03c-.251-.551-.495-1.108-.73-1.671z" fill="url(#q)"/><path d="m201.859 266.846c-.142-.396-.289-.79-.44-1.184-11.243-29.288-44.099-43.917-73.387-32.674-16.894 6.485-28.9099 20.161-33.8973 36.195 6.2683-11.016 16.2433-20.013 28.9993-24.909 29.288-11.243 62.145 3.386 73.387 32.674.152.394.298.788.44 1.183l.013-.005 172.095 448.325c8.207 6.187 14.836 14.675 18.79 24.977.426 1.109.815 2.224 1.167 3.343l.126-.048-187.281-487.882zm76.687 512.709c-.062 1.307-.076 2.62-.041 3.936l2.699 7.031c-1.269-3.624-2.148-7.295-2.658-10.967zm4.544 15.881-.651-1.695c.235.561.478 1.116.729 1.666z" fill="#f4f9ff"/><path d="m325.247 215.379c1.12 1.323 2.146 2.68 3.053 4.067 4.331 7.036 6.57 15.16 6.454 23.421.031 1.453-.256 2.888-.833 4.207 7.576 3.673 15.632 7.258 24.192 10.716 111.35 44.995 51.175 137.384-48.351 60.31-10.593-8.204-20.379-18.165-29.233-29.123-1.679.797-3.551 1.11-5.404.898-11.255-1.311-29.034-7.169-55.983-24.417 3.99-2.361 7.99-4.671 12.004-6.931 8.667-1.257 19.234-1.972 28.3-.214-2.245-3.824-4.387-7.68-6.421-11.546 14.481-7.418 29.154-14.218 44.084-20.442 2.326 1.524 4.721 3.046 7.185 4.562-1.044-1.936-2.101-4.007-3.167-6.221 7.963-3.255 15.999-6.349 24.12-9.287z" fill="#000c2a" opacity=".5"/></g><path d="m374.623 285.081c-11.988-1.394-31.363-7.93-61.307-27.83 0 0 30.703-8.796 50.216-2.592 7.814 2.713 14.695 7.591 19.838 14.066 1.294 1.525 2.099 3.404 2.311 5.392s-.179 3.994-1.121 5.757c-.943 1.763-2.395 3.202-4.166 4.131-1.772.928-3.783 1.303-5.771 1.076z" fill="#000c2a"/><path d="m417.246 245.201c-8.413-8.683-19.285-25.965-29.918-60.31 0 0 29.37 12.586 40.583 29.705 4.34 7.042 6.583 15.172 6.467 23.439.043 2.002-.518 3.97-1.61 5.648s-2.664 2.989-4.512 3.762c-1.849.773-3.887.972-5.851.572-1.963-.4-3.761-1.382-5.159-2.816z" fill="#300091"/><path clip-rule="evenodd" d="m421.951 247.913c.477-.121.947-.277 1.405-.469 1.848-.773 3.42-2.083 4.512-3.762 1.092-1.678 1.654-3.646 1.611-5.647.115-8.268-2.128-16.398-6.468-23.439-7.385-11.276-23.212-22.324-33.157-28.553 7.36 3.475 28.841 14.483 38.056 28.553 4.34 7.042 6.584 15.172 6.468 23.439.043 2.002-.518 3.97-1.61 5.648s-2.665 2.989-4.513 3.762-3.886.972-5.85.572c-.153-.031-.304-.066-.454-.104z" fill="#fff" fill-rule="evenodd"/><path d="m325.125 178.918c-35.079-16.694-35.809-81.4862-35.809-81.4862l36.851 46.9252 22.131-57.5574s11.906 108.8114-23.173 92.1184z" fill="url(#r)"/><path clip-rule="evenodd" d="m338.55 178.288c12.489-17.274 8.552-70.926 7.267-85.0374l2.481-6.4516s8.415 76.907-9.748 91.489zm-12.396-33.948-36.838-46.9088s.028 2.4629.333 6.5518l36.359 40.769z" fill="#fff" fill-rule="evenodd"/><path d="m457.787 252.971c-89.27-36.024-123.912-85.716-130.074-106.059-8.945 27.87 24.723 122.413 81.62 166.416 99.737 77.136 160.041-15.327 48.454-60.357z" fill="url(#s)"/><path clip-rule="evenodd" d="m1375.96 1052.63-385.906-1101.4048-19.793-8.6242 33.639 949.459zm-473.471-209.558 45.98-906.1303-56.661-24.6885-252.097 817.8778zm-276.818-1050.616-601.9623 671.055-234.1167-100.551 731.751-615.962zm-282.923 808.281 415.082-750.697-39.92-17.394-524.317 702.582z" fill="url(#t)" fill-rule="evenodd"/><g filter="url(#a)"><path d="m701.668 129.859-14.282-8.549-14.282-8.548 12.638 10.824 12.637 10.824c5.762 4.935 9.333 11.583 10.484 18.632s-.117 14.488-4.008 21l-8.549 14.28-8.549 14.279 10.825-12.635 10.825-12.635c4.936-5.761 11.584-9.331 18.634-10.481 7.05-1.151 14.49.118 21.003 4.008l14.282 8.549 14.282 8.548-12.638-10.824-12.637-10.824c-5.762-4.936-9.333-11.583-10.484-18.632-1.15-7.049.118-14.488 4.008-21.001l8.549-14.279 8.549-14.2797-10.825 12.6357-10.825 12.635c-4.936 5.761-11.583 9.331-18.633 10.481s-14.491-.118-21.004-4.008z" fill="#fff"/></g><g filter="url(#b)"><path d="m545.352 219.491-.199-1.862-.2-1.861 1.589 1.082 1.589 1.081c2.028 1.363 4.278 2.349 6.613 2.942 2.336.594 4.787.766 7.219.502l1.906-.214 1.907-.213-1.051 1.558-1.051 1.558c-1.362 2.027-2.36 4.26-2.952 6.596-.592 2.335-.762 4.786-.527 7.218l.201 1.952.2 1.952-1.589-1.082-1.589-1.082c-2.028-1.363-4.277-2.348-6.613-2.942-2.35-.579-4.787-.766-7.219-.502l-1.906.214-1.907.214 1.081-1.619 1.08-1.618c1.362-2.027 2.345-4.276 2.922-6.626s.747-4.771.497-7.218z" fill="#fff"/></g></g></svg>